<?xml version="1.0" standalone="no"?>
<!DOCTYPE svg PUBLIC "-//W3C//DTD SVG 20010904//EN"
 "http://www.w3.org/TR/2001/REC-SVG-20010904/DTD/svg10.dtd">
<svg version="1.0" xmlns="http://www.w3.org/2000/svg"
 width="32.000000pt" height="32.000000pt" viewBox="0 0 32.000000 32.000000"
 preserveAspectRatio="xMidYMid meet">

<g transform="translate(0.000000,32.000000) scale(0.100000,-0.100000)"
fill="#000000" stroke="none">
<path d="M46 290 c-18 -21 -36 -77 -36 -112 0 -61 52 -130 120 -158 60 -25
146 36 172 121 13 45 -1 122 -27 148 -21 22 -211 23 -229 1z m233 -25 c42 -86
11 -181 -72 -225 l-47 -25 -47 25 c-54 28 -93 86 -93 136 0 32 17 91 31 109 5
7 50 10 111 10 103 -1 103 -1 117 -30z"/>
<path d="M59 258 c-5 -9 -9 -19 -9 -22 0 -3 52 -6 115 -6 l115 0 -11 23 c-9
21 -16 22 -106 22 -79 0 -96 -3 -104 -17z"/>
<path d="M40 185 c0 -45 20 -85 60 -119 45 -38 82 -34 132 12 35 33 41 45 46
90 l5 52 -122 0 -121 0 0 -35z"/>
</g>
</svg>
